<?xml version="1.0" encoding="UTF-8" standalone="no"?>
<!-- Created with Inkscape (http://www.inkscape.org/) -->

<svg
   width="172.66978mm"
   height="164.23686mm"
   viewBox="0 0 172.66978 164.23686"
   version="1.1"
   id="svg1"
   inkscape:version="1.3.2 (091e20e, 2023-11-25, custom)"
   sodipodi:docname="Poster.svg.2024_03_14_16_48_23.0.svg"
   inkscape:export-filename="VirtuYes.png"
   inkscape:export-xdpi="300"
   inkscape:export-ydpi="300"
   xml:space="preserve"
   xmlns:inkscape="http://www.inkscape.org/namespaces/inkscape"
   xmlns:sodipodi="http://sodipodi.sourceforge.net/DTD/sodipodi-0.dtd"
   xmlns="http://www.w3.org/2000/svg"
   xmlns:svg="http://www.w3.org/2000/svg"><sodipodi:namedview
     id="namedview1"
     pagecolor="#ffffff"
     bordercolor="#000000"
     borderopacity="0.25"
     inkscape:showpageshadow="2"
     inkscape:pageopacity="0.0"
     inkscape:pagecheckerboard="0"
     inkscape:deskcolor="#d1d1d1"
     inkscape:document-units="mm"
     inkscape:zoom="1.4380896"
     inkscape:cx="-1033.663"
     inkscape:cy="-822.9668"
     inkscape:window-width="1920"
     inkscape:window-height="1009"
     inkscape:window-x="1912"
     inkscape:window-y="-8"
     inkscape:window-maximized="1"
     inkscape:current-layer="layer1"
     showguides="true" /><defs
     id="defs1" /><g
     inkscape:groupmode="layer"
     id="layer1"
     inkscape:label="Layer 1"
     transform="translate(245.29578,20.730495)"><path
       style="fill:#ffffff;fill-opacity:1;fill-rule:evenodd;stroke:none;stroke-width:4.22399;stroke-linecap:round;stroke-linejoin:round;stroke-dasharray:none;stroke-opacity:1"
       d="M -158.96089,3.0257201 C -164.1361,-6.319 -172.63455,-13.810665 -182.60278,-17.673427 c -11.25627,-4.361886 -24.24579,-4.041865 -35.2736,0.869032 -11.02782,4.910897 -19.9559,14.3511977 -24.2446,25.6355553 -2.95667,7.7795557 -3.74693,16.3045217 -2.78983,24.5717697 0.95709,8.267248 3.62556,16.285416 7.34426,23.730862 7.4374,14.890893 18.89366,27.342247 30.45269,39.318999 15.58694,16.150229 31.64711,31.843719 48.15297,47.053559 16.50586,-15.20984 32.56603,-30.90333 48.15297,-47.053559 11.55903,-11.976752 23.01529,-24.428106 30.45269,-39.318999 3.7187,-7.445446 6.38717,-15.463614 7.34426,-23.730862 0.9571,-8.267248 0.16684,-16.792214 -2.78983,-24.5717697 -4.2887,-11.2843576 -13.21678,-20.7246583 -24.2446,-25.6355553 -11.02781,-4.910897 -24.01733,-5.230918 -35.2736,-0.869032 -9.96823,3.862762 -18.46668,11.354427 -23.64189,20.6991471 z"
       id="path126"
       sodipodi:nodetypes="cssc"
       inkscape:export-filename="..\..\..\Heart.svg"
       inkscape:export-xdpi="150"
       inkscape:export-ydpi="150" /></g></svg>
